<?xml version="1.0" encoding="iso-8859-1"?>
<!-- Uploaded to: SVG Repo, www.svgrepo.com, Generator: SVG Repo Mixer Tools -->
<svg version="1.1" id="Layer_1" xmlns="http://www.w3.org/2000/svg" xmlns:xlink="http://www.w3.org/1999/xlink" 
	 viewBox="0 0 512 512" xml:space="preserve">
<rect x="118.38" y="165.6" style="fill:#333E48;" width="275.227" height="299.553"/>
<rect x="118.38" y="165.6" style="opacity:0.2;enable-background:new    ;" width="275.227" height="92.75"/>
<g>
	<path style="fill:#D1D3D3;" d="M268.842,18.562c-7.063-5.28-18.62-5.28-25.682,0L83.317,138.037
		c-7.063,5.279-5.627,9.598,3.19,9.598h338.985c8.818,0,10.253-4.319,3.19-9.598L268.842,18.562z"/>
	<rect x="79.38" y="207.347" style="fill:#D1D3D3;" width="86.295" height="223.625"/>
</g>
<rect x="114.511" y="237.594" style="fill:#A4A9AD;" width="16.032" height="212.852"/>
<rect x="79.38" y="207.347" style="opacity:0.1;enable-background:new    ;" width="86.295" height="22.509"/>
<g>
	<path style="fill:#A4A9AD;" d="M165.68,214.26c7.289,0,13.198-5.909,13.198-13.198s-5.908-13.198-13.198-13.198H79.381
		c-7.289,0-13.198,5.909-13.198,13.198c0,7.288,5.908,13.198,13.198,13.198L165.68,214.26L165.68,214.26z"/>
	<path style="fill:#A4A9AD;" d="M165.68,450.444c7.289,0,13.198-5.909,13.198-13.198s-5.908-13.198-13.198-13.198H79.381
		c-7.289,0-13.198,5.909-13.198,13.198s5.908,13.198,13.198,13.198H165.68z"/>
</g>
<rect x="212.851" y="207.347" style="fill:#D1D3D3;" width="86.295" height="223.625"/>
<rect x="247.983" y="237.594" style="fill:#A4A9AD;" width="16.032" height="212.852"/>
<rect x="212.851" y="207.347" style="opacity:0.1;enable-background:new    ;" width="86.295" height="22.509"/>
<g>
	<path style="fill:#A4A9AD;" d="M299.146,214.26c7.289,0,13.198-5.909,13.198-13.198s-5.908-13.198-13.198-13.198h-86.299
		c-7.289,0-13.198,5.909-13.198,13.198c0,7.288,5.908,13.198,13.198,13.198L299.146,214.26L299.146,214.26z"/>
	<path style="fill:#A4A9AD;" d="M299.146,450.444c7.289,0,13.198-5.909,13.198-13.198s-5.908-13.198-13.198-13.198h-86.299
		c-7.289,0-13.198,5.909-13.198,13.198s5.908,13.198,13.198,13.198H299.146z"/>
</g>
<rect x="346.313" y="207.347" style="fill:#D1D3D3;" width="86.295" height="223.625"/>
<rect x="381.444" y="237.594" style="fill:#A4A9AD;" width="16.032" height="212.852"/>
<rect x="346.313" y="207.347" style="opacity:0.1;enable-background:new    ;" width="86.295" height="22.509"/>
<g>
	<path style="fill:#A4A9AD;" d="M432.612,214.26c7.289,0,13.198-5.909,13.198-13.198s-5.908-13.198-13.198-13.198h-86.299
		c-7.289,0-13.198,5.909-13.198,13.198c0,7.288,5.908,13.198,13.198,13.198L432.612,214.26L432.612,214.26z"/>
	<path style="fill:#A4A9AD;" d="M432.612,450.444c7.289,0,13.198-5.909,13.198-13.198s-5.908-13.198-13.198-13.198h-86.299
		c-7.289,0-13.198,5.909-13.198,13.198s5.908,13.198,13.198,13.198H432.612z"/>
</g>
<path style="fill:#D1D3D3;" d="M469.543,474.581c0,2.9-2.373,5.272-5.272,5.272H47.729c-2.9,0-5.272-2.373-5.272-5.272v-18.866
	c0-2.9,2.373-5.271,5.272-5.271h416.542c2.9,0,5.272,2.372,5.272,5.271v18.866H469.543z"/>
<g>
	<path style="fill:#A4A9AD;" d="M493.91,498.712c0,2.9-2.373,5.272-5.272,5.272H23.363c-2.9,0-5.272-2.373-5.272-5.272v-18.866
		c0-2.9,2.373-5.271,5.272-5.271h465.274c2.9,0,5.272,2.372,5.272,5.271L493.91,498.712L493.91,498.712z"/>
	<path style="fill:#A4A9AD;" d="M453.417,137.273c0-5.878-4.81-10.688-10.688-10.688H69.27c-5.878,0-10.688,4.81-10.688,10.688
		v22.863c0,5.878,4.81,10.688,10.688,10.688h373.459c5.878,0,10.688-4.81,10.688-10.688V137.273z"/>
</g>
<path style="fill:#D1D3D3;" d="M475.232,164.469c0-5.878-4.81-10.688-10.688-10.688H47.456c-5.878,0-10.688,4.81-10.688,10.688
	v12.708c0,5.878,4.81,10.688,10.688,10.688h417.088c5.878,0,10.688-4.81,10.688-10.688V164.469z"/>
<circle style="fill:#A4A9AD;" cx="255.999" cy="61.919" r="53.9"/>
<path style="fill:#D1D3D3;" d="M256.662,26.578c1.93,0,3.458,1.528,3.458,3.458v1.769c4.744,0.562,8.764,2.091,12.463,4.423
	c1.287,0.724,2.412,1.929,2.412,3.858c0,2.494-2.01,4.423-4.503,4.423c-0.804,0-1.607-0.242-2.411-0.724
	c-2.814-1.689-5.548-2.894-8.282-3.538v15.439c12.223,3.056,17.448,7.96,17.448,16.564c0,8.844-6.915,14.714-17.126,15.679v4.825
	c0,1.93-1.528,3.458-3.458,3.458c-1.929,0-3.538-1.527-3.538-3.458v-4.985c-6.031-0.644-11.579-2.815-16.484-6.272
	c-1.367-0.885-2.172-2.172-2.172-3.859c0-2.494,1.93-4.423,4.423-4.423c0.965,0,1.93,0.322,2.653,0.885
	c3.779,2.734,7.478,4.584,11.9,5.388V63.646c-11.74-3.056-17.207-7.478-17.207-16.563c0-8.604,6.835-14.555,16.886-15.359v-1.689
	C253.124,28.106,254.732,26.578,256.662,26.578z M253.445,53.998V39.765c-5.145,0.482-7.719,3.217-7.719,6.755
	C245.726,49.897,247.254,51.987,253.445,53.998z M259.797,65.174v14.634c5.146-0.563,7.96-3.136,7.96-6.995
	C267.758,69.274,265.989,67.104,259.797,65.174z"/>
<path style="fill:#1E252B;" d="M488.637,466.557h-11.078v-10.842c0-7.327-5.961-13.287-13.288-13.287h-11.112
	c0.42-1.662,0.667-3.391,0.667-5.182c0-8.86-5.465-16.46-13.198-19.63V220.692c7.733-3.169,13.198-10.769,13.198-19.63
	c0-1.79-0.247-3.52-0.667-5.182h11.386c10.313,0,18.704-8.391,18.704-18.704v-12.708c0-10.313-8.391-18.704-18.704-18.704h-3.111
	v-8.492c0-10.313-8.391-18.704-18.704-18.704h-26.702L314.961,43.027C306.954,18.097,283.556,0,256,0
	c-27.555,0-50.954,18.097-58.96,43.027L95.974,118.569H69.27c-10.313,0-18.704,8.391-18.704,18.704v8.492h-3.11
	c-10.313,0-18.704,8.391-18.704,18.704v12.708c0,10.313,8.391,18.704,18.704,18.704h11.378c-0.42,1.662-0.667,3.391-0.667,5.182
	c0,8.86,5.465,16.46,13.198,19.63v196.924c-7.733,3.17-13.198,10.769-13.198,19.63c0,1.79,0.247,3.521,0.667,5.182H47.729
	c-7.327,0-13.288,5.961-13.288,13.287v10.843H23.363c-7.328,0-13.288,5.961-13.288,13.287v18.866
	c0,7.327,5.962,13.288,13.288,13.288h465.274c7.327,0,13.288-5.962,13.288-13.288v-18.866
	C501.926,472.519,495.965,466.557,488.637,466.557z M317.832,65.188l71.417,53.381H280.952
	C301.755,109.37,316.585,89.052,317.832,65.188z M256,16.032c25.302,0,45.887,20.585,45.887,45.887S281.302,107.806,256,107.806
	s-45.887-20.585-45.887-45.887S230.698,16.032,256,16.032z M194.169,65.188c1.247,23.865,16.077,44.182,36.88,53.381H122.752
	L194.169,65.188z M66.598,137.273c0-1.448,1.224-2.672,2.672-2.672h373.459c1.448,0,2.672,1.224,2.672,2.672v8.492H66.598V137.273z
	 M47.456,179.849c-1.448,0-2.672-1.224-2.672-2.672v-12.708c0-1.448,1.224-2.672,2.672-2.672h417.088
	c1.448,0,2.672,1.224,2.672,2.672v12.708c0,1.448-1.224,2.672-2.672,2.672H47.456z M432.612,432.064
	c2.857,0,5.182,2.325,5.182,5.182s-2.325,5.182-5.182,5.182h-86.299c-2.857,0-5.182-2.325-5.182-5.182s2.325-5.182,5.182-5.182
	H432.612z M354.329,416.033V222.276h70.267v193.755h-70.267V416.033z M432.612,206.244h-86.299c-2.857,0-5.182-2.325-5.182-5.182
	s2.325-5.182,5.182-5.182h86.299c2.857,0,5.182,2.325,5.182,5.182C437.793,203.921,435.47,206.244,432.612,206.244z
	 M325.766,442.428h-6.073c0.42-1.662,0.667-3.391,0.667-5.182c0-8.86-5.465-16.46-13.198-19.63V220.692
	c7.733-3.169,13.198-10.769,13.198-19.63c0-1.79-0.247-3.52-0.667-5.182h6.073c-0.42,1.662-0.667,3.391-0.667,5.182
	c0,8.86,5.465,16.46,13.198,19.63v196.924c-7.733,3.17-13.198,10.769-13.198,19.63C325.099,439.036,325.346,440.766,325.766,442.428
	z M299.146,432.064c2.857,0,5.182,2.325,5.182,5.182s-2.325,5.182-5.182,5.182h-86.299c-2.857,0-5.182-2.325-5.182-5.182
	s2.325-5.182,5.182-5.182H299.146z M220.863,416.033V222.276h70.267v193.755h-70.267V416.033z M299.146,206.244h-86.299
	c-2.857,0-5.182-2.325-5.182-5.182s2.325-5.182,5.182-5.182h86.299c2.857,0,5.182,2.325,5.182,5.182
	C304.328,203.921,302.003,206.244,299.146,206.244z M192.3,442.428h-6.073c0.42-1.662,0.667-3.391,0.667-5.182
	c0-8.86-5.465-16.46-13.198-19.63V220.692c7.733-3.169,13.198-10.769,13.198-19.63c0-1.79-0.247-3.52-0.667-5.182h6.073
	c-0.42,1.662-0.667,3.391-0.667,5.182c0,8.86,5.465,16.46,13.198,19.63v196.924c-7.733,3.17-13.198,10.769-13.198,19.63
	C191.633,439.036,191.881,440.766,192.3,442.428z M165.68,432.064c2.857,0,5.182,2.325,5.182,5.182s-2.325,5.182-5.182,5.182H79.381
	c-2.857,0-5.182-2.325-5.182-5.182s2.325-5.182,5.182-5.182H165.68z M87.397,416.033V222.276h70.267v193.755H87.397V416.033z
	 M165.68,206.244H79.381c-2.857,0-5.182-2.325-5.182-5.182s2.325-5.182,5.182-5.182h86.299c2.857,0,5.182,2.325,5.182,5.182
	C170.862,203.921,168.538,206.244,165.68,206.244z M50.473,458.46h411.055v8.098H50.473V458.46z M485.893,495.968H26.107v-13.379
	h459.786v13.379H485.893z"/>
</svg>